@startuml
!include style.puml
skinparam ClassFontColor #000000
skinparam ClassBorderColor #000000
skinparam linetype ortho
hide empty methods
hide empty members


title Final state after executing the <plain><font:monospaced><back:lightgray>DeleteDebtCommand</back></font></plain>



Package Model {
    class NewPerson as "__newPerson1:Person__"
        class DebtList as "__newList:DebtList__"
        class Debt1Copy as "__copyOf1:Debt__"
}


NewPerson --> DebtList
DebtList --> Debt1Copy



@end
